<?xml version="1.0" encoding="iso-8859-1"?>
<!-- Generator: Adobe Illustrator 19.0.0, SVG Export Plug-In . SVG Version: 6.00 Build 0)  -->
<svg version="1.1" id="Layer_1" xmlns="http://www.w3.org/2000/svg" xmlns:xlink="http://www.w3.org/1999/xlink" x="0px" y="0px"
	 viewBox="0 0 512 512" style="enable-background:new 0 0 512 512;" xml:space="preserve">
<polyline style="fill:#FDBB00;" points="401.059,438.98 401.059,22.961 169.744,22.961 169.744,438.98 "/>
<polyline style="fill:#EDAB06;" points="216.459,438.98 216.459,22.961 169.744,22.961 169.744,438.98 "/>
<polyline style="fill:#F9CF67;" points="368.26,438.98 368.26,22.961 336.719,22.961 336.719,438.98 "/>
<g>
	<rect x="169.743" y="69.851" style="fill:#EDAB06;" width="231.315" height="17.263"/>
	<rect x="169.743" y="121.291" style="fill:#EDAB06;" width="231.315" height="17.263"/>
	<rect x="169.743" y="172.735" style="fill:#EDAB06;" width="231.315" height="17.263"/>
	<rect x="169.743" y="224.179" style="fill:#EDAB06;" width="231.315" height="17.263"/>
	<rect x="169.743" y="275.624" style="fill:#EDAB06;" width="231.315" height="17.263"/>
	<rect x="169.743" y="327.056" style="fill:#EDAB06;" width="231.315" height="17.263"/>
	<rect x="169.743" y="378.501" style="fill:#EDAB06;" width="231.315" height="17.263"/>
	<rect x="169.743" y="429.945" style="fill:#EDAB06;" width="231.315" height="17.263"/>
</g>
<rect y="215.433" style="fill:#FDBB00;" width="231.315" height="249.614"/>
<rect y="215.433" style="fill:#EDAB06;" width="49.591" height="249.614"/>
<rect x="160.076" y="215.433" style="fill:#F9CF67;" width="34.525" height="249.614"/>
<g>
	<rect y="254.447" style="fill:#EDAB06;" width="231.315" height="17.263"/>
	<rect y="305.88" style="fill:#EDAB06;" width="231.315" height="17.263"/>
	<rect y="357.324" style="fill:#EDAB06;" width="231.315" height="17.263"/>
	<rect y="408.769" style="fill:#EDAB06;" width="231.315" height="17.263"/>
</g>
<path style="fill:#FDBB00;" d="M505.089,366.481c0,63.874-51.789,115.652-115.663,115.652c-14.812,0-28.968-2.785-41.984-7.86
	c-43.112-16.803-73.668-58.729-73.668-107.791c0-63.885,51.778-115.663,115.652-115.663c14.754,0,28.853,2.762,41.823,7.803
	C474.453,275.377,505.089,317.35,505.089,366.481z"/>
<path style="fill:#F9CF67;" d="M505.089,366.481c0,63.874-51.789,115.652-115.663,115.652c-14.812,0-28.968-2.785-41.984-7.86
	l83.807-215.651C474.453,275.377,505.089,317.35,505.089,366.481z"/>
<g>
	<path style="fill:#EDAB06;" d="M389.437,489.039c-67.582,0-122.563-54.981-122.563-122.563s54.981-122.563,122.563-122.563
		S512,298.894,512,366.476S457.018,489.039,389.437,489.039z M389.437,257.724c-59.965,0-108.752,48.786-108.752,108.752
		s48.787,108.752,108.752,108.752s108.752-48.786,108.752-108.752S449.403,257.724,389.437,257.724z"/>
	<circle style="fill:#EDAB06;" cx="389.434" cy="366.474" r="71.389"/>
</g>
<g>
</g>
<g>
</g>
<g>
</g>
<g>
</g>
<g>
</g>
<g>
</g>
<g>
</g>
<g>
</g>
<g>
</g>
<g>
</g>
<g>
</g>
<g>
</g>
<g>
</g>
<g>
</g>
<g>
</g>
</svg>
