<?xml version="1.0" encoding="iso-8859-1"?>
<!-- Generator: Adobe Illustrator 19.0.0, SVG Export Plug-In . SVG Version: 6.00 Build 0)  -->
<svg version="1.1" id="Capa_1" xmlns="http://www.w3.org/2000/svg" xmlns:xlink="http://www.w3.org/1999/xlink" x="0px" y="0px"
	 viewBox="0 0 512 512" style="enable-background:new 0 0 512 512;" xml:space="preserve">
<path style="fill:#FD9727;" d="M261.582,164.402l2.936-5.571c6.946-13.179,21.354-36.778,39.825-46.774
	c28.166-15.241,65.16-12.997,66.72-12.894l21.963,1.449l-17.189,13.747c-10.273,8.241-26.816,25.688-27.457,37.409
	c-0.159,2.901,0.699,5.123,2.779,7.204c0,0,0.001,0.001,0.002,0.002c0.466,0.466,0.998,0.927,1.581,1.371
	c5.171,3.934,9.541,7.677,12.991,11.127c3.468,3.468,14.023,14.023,10.684,25.212c-2.002,6.707-8.026,11.151-17.906,13.209
	c-7.284,1.518-19.56,7.181-28.557,13.173l-5.827,3.882L261.582,164.402z"/>
<path style="fill:#AF8A82;" d="M200.569,214.953L5.922,480.708c-5.734,7.829-4.902,18.67,1.96,25.531l0,0
	c6.864,6.864,17.71,7.694,25.539,1.954l265.63-194.759L200.569,214.953z"/>
<path style="fill:#927266;" d="M272.607,286.99L6.977,481.749c-0.863,0.633-1.768,1.172-2.695,1.646
	c-3.824,7.482-2.508,16.737,3.6,22.844l0,0c6.864,6.864,17.71,7.694,25.539,1.954l265.63-194.759L272.607,286.99z"/>
<path style="fill:#FED130;" d="M489.969,164.73c0.914-3.534-2.78-6.469-6.026-4.798c-39.924,20.556-92.498,9.678-78.886-13.402
	c14.523-24.626,78.299-17.68,98.506-68.196c12.908-32.27,3.398-60.159-5.156-76.096c-2.068-3.853-7.857-2.423-7.935,1.949
	c-0.278,15.373-5.457,37.128-31.11,43.837c-41.044,10.735-101.544-32.049-162.281,9.472
	c-46.048,31.479-35.882,87.374-28.412,112.144c5.494-11.723,20.757-39.796,39.741-50.07c26.321-14.244,62.091-11.882,62.091-11.882
	s-49.271,39.41-22.93,59.454s25.991,30.889,9.2,34.387c-10.002,2.084-27.196,10.377-37.464,18.748l16.292,15.917
	c0,0,74.51,18.943,113.66-11.366C476.605,203.658,486.493,178.172,489.969,164.73z"/>
<g>
	<path style="fill:#F7BC14;" d="M490.433,5.547c-0.005,0.14-0.013,0.282-0.019,0.423c-0.013,0.32-0.028,0.641-0.047,0.966
		c-0.01,0.173-0.021,0.348-0.032,0.522c-0.019,0.299-0.04,0.598-0.063,0.9c-0.014,0.186-0.029,0.373-0.045,0.56
		c-0.026,0.301-0.055,0.604-0.085,0.908c-0.018,0.183-0.035,0.365-0.055,0.549c-0.037,0.344-0.079,0.69-0.122,1.037
		c-0.018,0.144-0.034,0.288-0.052,0.433c-0.063,0.479-0.132,0.96-0.207,1.443c-0.025,0.164-0.055,0.329-0.082,0.493
		c-0.054,0.33-0.109,0.66-0.169,0.991c-0.038,0.208-0.079,0.417-0.119,0.626c-0.055,0.287-0.112,0.575-0.172,0.863
		c-0.047,0.226-0.097,0.453-0.147,0.679c-0.061,0.274-0.125,0.549-0.19,0.824c-0.055,0.231-0.11,0.462-0.169,0.693
		c-0.07,0.278-0.145,0.556-0.22,0.833c-0.061,0.226-0.12,0.451-0.184,0.677c-0.092,0.321-0.19,0.642-0.289,0.963
		c-0.106,0.345-0.216,0.689-0.33,1.033c-0.101,0.303-0.2,0.607-0.307,0.909c-0.085,0.241-0.177,0.48-0.266,0.72
		c-0.094,0.253-0.188,0.506-0.288,0.758c-0.098,0.251-0.201,0.5-0.305,0.749c-0.099,0.24-0.2,0.479-0.304,0.717
		c-0.11,0.254-0.223,0.507-0.339,0.759c-0.106,0.231-0.216,0.461-0.327,0.691c-0.123,0.255-0.245,0.511-0.373,0.765
		c-0.115,0.227-0.236,0.451-0.356,0.677c-0.133,0.252-0.263,0.505-0.403,0.754c-0.242,0.435-0.493,0.866-0.754,1.294
		c-0.152,0.249-0.313,0.495-0.471,0.742c-0.136,0.213-0.27,0.426-0.411,0.637c-0.166,0.248-0.339,0.493-0.512,0.738
		c-0.144,0.205-0.289,0.409-0.438,0.612c-0.18,0.245-0.364,0.487-0.55,0.728c-0.154,0.199-0.311,0.396-0.47,0.593
		c-0.193,0.239-0.387,0.478-0.588,0.714c-0.163,0.192-0.333,0.382-0.502,0.572c-0.208,0.235-0.414,0.471-0.63,0.702
		c-0.168,0.18-0.345,0.354-0.517,0.531c-0.417,0.428-0.849,0.849-1.294,1.262c-0.189,0.176-0.374,0.353-0.568,0.526
		c-0.24,0.213-0.489,0.419-0.736,0.628c-0.207,0.174-0.414,0.35-0.627,0.521c-0.253,0.203-0.512,0.402-0.773,0.6
		c-0.221,0.168-0.445,0.335-0.672,0.5c-0.267,0.194-0.538,0.386-0.813,0.575c-0.237,0.162-0.479,0.32-0.721,0.479
		c-0.28,0.183-0.559,0.366-0.848,0.544c-0.258,0.159-0.526,0.311-0.79,0.466c-0.288,0.168-0.571,0.34-0.867,0.502l0,0
		c-0.063,0.16-0.118,0.318-0.182,0.478c-20.206,50.516-76.349,40.531-91.191,64.967c-13.267,21.843,2.409,59.222,32.356,55.574
		c-7.402-4.27-10.322-10.651-5.743-18.416c14.236-24.14,75.791-17.951,97.251-65.275c0.431-0.97,0.862-1.939,1.254-2.921
		c4.034-10.084,5.878-19.741,6.247-28.739c0.074-1.8,0.088-3.573,0.05-5.318s-0.131-3.462-0.27-5.149
		c-0.279-3.373-0.749-6.627-1.364-9.745c-0.461-2.339-1.003-4.601-1.608-6.782c-0.403-1.454-0.834-2.871-1.286-4.25
		c-0.453-1.379-0.927-2.719-1.418-4.02c-1.718-4.551-3.635-8.609-5.506-12.095c-0.905-1.685-2.522-2.36-4.061-2.219
		c-1.099,0.1-2.159,0.617-2.892,1.478c-0.586,0.689-0.963,1.598-0.982,2.691C490.463,4.635,490.449,5.089,490.433,5.547z"/>
	<path style="fill:#F7BC14;" d="M489.969,164.73c0.914-3.534-2.78-6.469-6.026-4.798c-15.689,8.078-33.329,11.299-48.141,10.836
		c-5.409,6.803-12.123,13.669-20.473,20.133c-20.705,16.03-51.298,18.282-75.532,16.848c-7.368,3.511-14.941,8.005-20.492,12.53
		l16.292,15.917c0,0,74.51,18.944,113.66-11.366C476.605,203.658,486.493,178.172,489.969,164.73z"/>
</g>
<path style="fill:#B9BBC1;" d="M285.182,274.025l-45.2-45.2c-28.207-28.207-37.055-70.43-22.545-107.589l0.44-1.128
	c1.522-3.897,6.544-4.95,9.502-1.991l168.505,168.504c2.936,2.936,1.925,7.916-1.923,9.475l0,0
	C356.559,311.254,313.718,302.561,285.182,274.025z"/>
<path style="fill:#A0A3AA;" d="M395.884,286.621l-22.127-22.127l-11.672,4.73c-35.243,14.283-75.611,6.092-102.501-20.797
	l25.598,25.598c28.536,28.536,71.377,37.229,108.779,22.072l0,0C397.809,294.537,398.819,289.557,395.884,286.621z"/>
<path style="fill:#FFB125;" d="M306.339,327.771L185.491,206.922c-3.188-3.188-3.188-8.357,0-11.545l11.423-11.423
	c3.188-3.188,8.357-3.188,11.546,0l120.848,120.848c3.188,3.188,3.188,8.357,0,11.546l-11.423,11.423
	C314.697,330.959,309.528,330.959,306.339,327.771z"/>
<path style="fill:#FF901D;" d="M329.308,304.802l-20.422-20.422l-22.969,22.969l20.422,20.422c3.188,3.188,8.357,3.188,11.545,0
	l11.423-11.423C332.497,313.159,332.497,307.99,329.308,304.802z"/>
<g>
</g>
<g>
</g>
<g>
</g>
<g>
</g>
<g>
</g>
<g>
</g>
<g>
</g>
<g>
</g>
<g>
</g>
<g>
</g>
<g>
</g>
<g>
</g>
<g>
</g>
<g>
</g>
<g>
</g>
</svg>
