<?xml version="1.0" encoding="iso-8859-1"?>
<!-- Generator: Adobe Illustrator 19.0.0, SVG Export Plug-In . SVG Version: 6.00 Build 0)  -->
<svg version="1.1" id="Capa_1" xmlns="http://www.w3.org/2000/svg" xmlns:xlink="http://www.w3.org/1999/xlink" x="0px" y="0px"
	 viewBox="0 0 432.588 432.588" style="enable-background:new 0 0 432.588 432.588;" xml:space="preserve">
<g>
	<rect x="15.673" y="129.078" style="fill:#4DCFE0;" width="98.22" height="174.498"/>
	<polygon style="fill:#4DCFE0;" points="255.478,25.11 255.478,407.543 113.894,303.576 113.894,129.078 	"/>
</g>
<g>
	<path style="fill:#3A2C51;" d="M262.792,11.004c-5.224-2.612-11.494-2.09-16.196,1.567L108.669,113.404H15.673
		C6.792,113.404,0,120.196,0,129.078v174.498c0,8.882,6.792,15.673,15.673,15.673h92.996l137.404,100.833
		c2.612,2.09,5.747,3.135,9.404,3.135c2.612,0,4.702-0.522,7.314-1.567c5.224-2.612,8.359-7.837,8.359-14.106V25.11
		C271.151,19.363,268.016,13.616,262.792,11.004z M98.22,287.902H31.347V144.751H98.22C98.22,144.751,98.22,287.902,98.22,287.902z
		 M239.804,376.718l-110.237-80.98V136.914l110.237-80.98V376.718z"/>
	<path style="fill:#3A2C51;" d="M324.441,282.155c-5.747,0-11.494-3.657-14.106-9.404c-3.657-7.837,0-17.241,7.837-20.898
		c15.151-6.792,23.51-19.853,23.51-36.049s-8.359-29.257-23.51-36.049c-7.837-3.657-11.494-13.061-7.837-20.898
		c3.657-7.837,12.539-11.494,20.898-7.837c26.122,12.539,41.796,36.571,41.796,65.306s-15.673,52.767-42.318,64.261
		C328.62,281.633,326.531,282.155,324.441,282.155z"/>
	<path style="fill:#3A2C51;" d="M329.665,339.102c-7.314,0-14.106-5.224-15.151-12.539c-1.567-8.359,3.657-16.718,12.539-18.286
		c43.363-8.359,74.71-47.02,74.71-91.951s-31.347-83.069-74.71-91.951c-8.359-1.567-14.106-9.927-12.539-18.286
		c1.567-8.359,9.927-14.106,18.286-12.539c57.992,11.494,99.788,63.216,99.788,122.776S390.792,327.086,332.8,338.58
		C331.755,339.102,330.71,339.102,329.665,339.102z"/>
</g>
<g>
</g>
<g>
</g>
<g>
</g>
<g>
</g>
<g>
</g>
<g>
</g>
<g>
</g>
<g>
</g>
<g>
</g>
<g>
</g>
<g>
</g>
<g>
</g>
<g>
</g>
<g>
</g>
<g>
</g>
</svg>
